<svg width="56" height="56" xmlns="http://www.w3.org/2000/svg" xmlns:xlink="http://www.w3.org/1999/xlink" xml:space="preserve" overflow="hidden"><g transform="translate(-38 -226)"><path d="M80.7787 243.274C79.8238 235.114 72.4351 229.274 64.2756 230.229 56.7996 231.103 51.1553 237.425 51.1297 244.952L58.1297 244.952C58.1295 240.604 61.6538 237.08 66.0014 237.079 70.349 237.079 73.8737 240.604 73.8738 244.951 73.8739 247.662 72.4794 250.182 70.1825 251.622 65.4424 254.522 62.537 259.665 62.5 265.222L69.5 265.222C69.5446 262.074 71.2117 259.172 73.9088 257.547 78.7646 254.517 81.4393 248.959 80.7787 243.274Z"/><path d="M69.1377 270.61 69.1377 270.61C67.4697 268.938 64.7624 268.935 63.0908 270.604 63.0887 270.606 63.0866 270.608 63.0845 270.61 62.6933 271.002 62.3819 271.467 62.1675 271.978 61.9443 272.506 61.8306 273.074 61.8332 273.647 61.83 274.218 61.9442 274.784 62.1687 275.309 62.6049 276.335 63.4245 277.15 64.453 277.581 64.9809 277.804 65.5483 277.918 66.1213 277.917 66.6922 277.919 67.2576 277.805 67.7827 277.581 68.8038 277.145 69.6172 276.332 70.053 275.31 70.2773 274.785 70.3917 274.22 70.389 273.649 70.3912 273.076 70.2772 272.508 70.0542 271.98 69.84 271.469 69.5288 271.003 69.1377 270.61Z"/></g></svg>