<svg width="61" height="61" xmlns="http://www.w3.org/2000/svg" xmlns:xlink="http://www.w3.org/1999/xlink" xml:space="preserve" overflow="hidden"><g transform="translate(-38 -293)"><path d="M62.9083 311.554C63.4167 311.046 63.7344 310.347 63.7344 309.584 63.7344 308.822 63.4167 308.123 62.9083 307.615L54.1396 298.909C53.6312 298.401 52.9323 298.083 52.2333 298.083 51.5344 298.083 50.7719 298.401 50.2635 298.909L49.3104 299.862 61.9552 312.507 62.9083 311.554Z"/><path d="M75.6802 333.984C75.426 334.239 75.0448 334.366 74.7271 334.366 74.4094 334.366 74.0281 334.239 73.774 333.984L58.0156 318.29C57.7615 318.035 57.6344 317.654 57.6344 317.336 57.6344 317.019 57.7615 316.638 58.0156 316.383L59.9854 314.477 47.3406 301.832C46.5146 302.658 45.7521 303.421 45.2438 303.929 43.9729 305.136 43.2104 306.725 43.1469 308.441 42.9562 311.3 43.6552 314.032 44.6083 316.701 45.625 319.052 46.9594 321.276 48.4208 323.373 53.6312 331.189 60.176 337.987 67.801 343.389 69.0719 344.342 70.4062 345.168 71.8042 345.93 74.9812 347.519 78.349 348.663 81.9708 348.917 84.3854 349.107 86.8 348.154 88.4521 346.375L90.1677 344.659 77.5865 332.015 75.6802 333.984Z"/><path d="M93.0906 337.86 84.3219 329.092C83.8135 328.583 83.1146 328.266 82.3521 328.266 81.5896 328.266 80.8906 328.583 80.3823 329.092L79.4292 330.108 92.074 342.753 93.0271 341.8C93.5354 341.292 93.8531 340.593 93.8531 339.83 93.8531 339.068 93.599 338.369 93.0906 337.86Z"/></g></svg>